<svg xmlns="http://www.w3.org/2000/svg" viewBox="0 0 1024 1024" role="img" aria-label="The Golf Society Hub app icon">
  <title>The Golf Society Hub App Icon</title>
  <rect width="1024" height="1024" fill="#0E1A2B" />
  <g transform="translate(162 38) scale(1.95)">
    <path fill="#FFFFFF" d="M180 28C128 28 86 43 52 56V236C52 336 113 406 180 440C247 406 308 336 308 236V56C274 43 232 28 180 28Z" />
    <path fill="#0E1A2B" d="M180 46C136 46 101 58 71 69V231C71 320 125 382 180 412C235 382 289 320 289 231V69C259 58 224 46 180 46Z" />
    <path fill="none" stroke="#FFFFFF" stroke-width="6" d="M180 46C136 46 101 58 71 69V231C71 320 125 382 180 412C235 382 289 320 289 231V69C259 58 224 46 180 46Z" />
    <rect x="177" y="2" width="6" height="44" fill="#FFFFFF" />
    <path fill="#1DB954" d="M183 7L228 19L183 31Z" />
    <path fill="#1DB954" d="M104 274C98 307 109 337 132 360V329C119 314 111 294 112 274Z" />
    <path fill="#1DB954" d="M180 392C146 373 119 345 108 313V342C122 369 148 392 180 409C212 392 238 369 252 342V313C241 345 214 373 180 392Z" />
    <path fill="#FFFFFF" d="M66.69 -9.234 68.514 0.0H79.914V-44.004000000000005H45.714V-30.666H63.726Q62.928000000000004 -22.116 58.083 -17.613Q53.238 -13.110000000000001 44.346000000000004 -13.110000000000001Q38.304 -13.110000000000001 34.086 -15.447Q29.868000000000002 -17.784 27.246000000000002 -21.66Q24.624000000000002 -25.536 23.427 -30.381Q22.23 -35.226 22.23 -40.356Q22.23 -45.714 23.427 -50.730000000000004Q24.624000000000002 -55.746 27.246000000000002 -59.679Q29.868000000000002 -63.612 34.086 -65.949Q38.304 -68.286 44.346000000000004 -68.286Q50.844 -68.286 55.403999999999996 -64.866Q59.964 -61.446000000000005 61.56 -54.606H78.66Q77.976 -61.56 74.898 -66.918Q71.82000000000001 -72.276 67.089 -75.924Q62.358000000000004 -79.572 56.487 -81.453Q50.616 -83.334 44.346000000000004 -83.334Q34.998000000000005 -83.334 27.531000000000002 -80.028Q20.064 -76.72200000000001 14.934000000000001 -70.90800000000002Q9.804 -65.09400000000001 7.068 -57.285000000000004Q4.332 -49.476 4.332 -40.356Q4.332 -31.464000000000002 7.068 -23.769000000000002Q9.804 -16.074 14.934000000000001 -10.374Q20.064 -4.674 27.531000000000002 -1.4250000000000003Q34.998000000000005 1.824 44.346000000000004 1.824Q50.274 1.824 56.088 -0.6270000000000001Q61.902 -3.0780000000000003 66.69 -9.234Z" transform="translate(110 266)" />
    <path fill="#FFFFFF" d="M20.064 -27.018H2.736Q2.622 -19.494 5.472 -14.022Q8.322000000000001 -8.55 13.167000000000002 -5.016Q18.012 -1.482 24.339 0.17100000000000004Q30.666 1.824 37.392 1.824Q45.714 1.824 52.041 -0.11399999999999999Q58.368 -2.052 62.643 -5.529Q66.918 -9.006 69.084 -13.794Q71.25 -18.582 71.25 -24.168Q71.25 -31.008000000000003 68.343 -35.397000000000006Q65.436 -39.786 61.446000000000005 -42.408Q57.456 -45.03 53.409000000000006 -46.227000000000004Q49.362 -47.424 47.082 -47.88Q39.444 -49.818000000000005 34.713 -51.072Q29.982 -52.326 27.303 -53.58Q24.624000000000002 -54.834 23.712000000000003 -56.316Q22.8 -57.798 22.8 -60.192Q22.8 -62.814 23.94 -64.524Q25.080000000000002 -66.23400000000001 26.847 -67.374Q28.614 -68.514 30.78 -68.97Q32.946 -69.426 35.112 -69.426Q38.418 -69.426 41.211 -68.856Q44.004000000000005 -68.286 46.17 -66.918Q48.336 -65.55 49.647 -63.156Q50.958 -60.762 51.186 -57.114000000000004H68.514Q68.514 -64.182 65.835 -69.141Q63.156 -74.10000000000001 58.596000000000004 -77.292Q54.036 -80.48400000000001 48.165000000000006 -81.909Q42.294000000000004 -83.334 35.910000000000004 -83.334Q30.438000000000002 -83.334 24.966 -81.852Q19.494 -80.37 15.161999999999999 -77.292Q10.83 -74.214 8.151 -69.59700000000001Q5.472 -64.98 5.472 -58.71Q5.472 -53.124 7.5809999999999995 -49.191Q9.69 -45.258 13.11 -42.636Q16.53 -40.014 20.862000000000002 -38.361000000000004Q25.194000000000003 -36.708 29.754 -35.568Q34.2 -34.314 38.532000000000004 -33.288Q42.864000000000004 -32.262 46.284000000000006 -30.894Q49.704 -29.526 51.813 -27.474Q53.922000000000004 -25.422 53.922000000000004 -22.116Q53.922000000000004 -19.038 52.32600000000001 -17.043Q50.730000000000004 -15.048 48.336 -13.908000000000001Q45.942 -12.768 43.206 -12.369Q40.47 -11.97 38.076 -11.97Q34.542 -11.97 31.236 -12.825Q27.93 -13.68 25.479 -15.447000000000001Q23.028000000000002 -17.214000000000002 21.546 -20.064Q20.064 -22.914 20.064 -27.018Z" transform="translate(176 304)" />
  </g>
</svg>
