<svg xmlns="http://www.w3.org/2000/svg" viewBox="0 0 1400 420" role="img" aria-label="The Golf Society Hub horizontal logo">
  <title>The Golf Society Hub Horizontal Logo</title>
  <g transform="translate(32 14) scale(0.9)">
    <path fill="#FFFFFF" d="M180 28C128 28 86 43 52 56V236C52 336 113 406 180 440C247 406 308 336 308 236V56C274 43 232 28 180 28Z" />
    <path fill="#0E1A2B" d="M180 46C136 46 101 58 71 69V231C71 320 125 382 180 412C235 382 289 320 289 231V69C259 58 224 46 180 46Z" />
    <path fill="none" stroke="#FFFFFF" stroke-width="6" d="M180 46C136 46 101 58 71 69V231C71 320 125 382 180 412C235 382 289 320 289 231V69C259 58 224 46 180 46Z" />
    <rect x="177" y="2" width="6" height="44" fill="#FFFFFF" />
    <path fill="#1DB954" d="M183 7L228 19L183 31Z" />
    <path fill="#1DB954" d="M104 274C98 307 109 337 132 360V329C119 314 111 294 112 274Z" />
    <path fill="#1DB954" d="M180 392C146 373 119 345 108 313V342C122 369 148 392 180 409C212 392 238 369 252 342V313C241 345 214 373 180 392Z" />
    <path fill="#FFFFFF" d="M66.69 -9.234 68.514 0.0H79.914V-44.004000000000005H45.714V-30.666H63.726Q62.928000000000004 -22.116 58.083 -17.613Q53.238 -13.110000000000001 44.346000000000004 -13.110000000000001Q38.304 -13.110000000000001 34.086 -15.447Q29.868000000000002 -17.784 27.246000000000002 -21.66Q24.624000000000002 -25.536 23.427 -30.381Q22.23 -35.226 22.23 -40.356Q22.23 -45.714 23.427 -50.730000000000004Q24.624000000000002 -55.746 27.246000000000002 -59.679Q29.868000000000002 -63.612 34.086 -65.949Q38.304 -68.286 44.346000000000004 -68.286Q50.844 -68.286 55.403999999999996 -64.866Q59.964 -61.446000000000005 61.56 -54.606H78.66Q77.976 -61.56 74.898 -66.918Q71.82000000000001 -72.276 67.089 -75.924Q62.358000000000004 -79.572 56.487 -81.453Q50.616 -83.334 44.346000000000004 -83.334Q34.998000000000005 -83.334 27.531000000000002 -80.028Q20.064 -76.72200000000001 14.934000000000001 -70.90800000000002Q9.804 -65.09400000000001 7.068 -57.285000000000004Q4.332 -49.476 4.332 -40.356Q4.332 -31.464000000000002 7.068 -23.769000000000002Q9.804 -16.074 14.934000000000001 -10.374Q20.064 -4.674 27.531000000000002 -1.4250000000000003Q34.998000000000005 1.824 44.346000000000004 1.824Q50.274 1.824 56.088 -0.6270000000000001Q61.902 -3.0780000000000003 66.69 -9.234Z" transform="translate(110 266)" />
    <path fill="#FFFFFF" d="M20.064 -27.018H2.736Q2.622 -19.494 5.472 -14.022Q8.322000000000001 -8.55 13.167000000000002 -5.016Q18.012 -1.482 24.339 0.17100000000000004Q30.666 1.824 37.392 1.824Q45.714 1.824 52.041 -0.11399999999999999Q58.368 -2.052 62.643 -5.529Q66.918 -9.006 69.084 -13.794Q71.25 -18.582 71.25 -24.168Q71.25 -31.008000000000003 68.343 -35.397000000000006Q65.436 -39.786 61.446000000000005 -42.408Q57.456 -45.03 53.409000000000006 -46.227000000000004Q49.362 -47.424 47.082 -47.88Q39.444 -49.818000000000005 34.713 -51.072Q29.982 -52.326 27.303 -53.58Q24.624000000000002 -54.834 23.712000000000003 -56.316Q22.8 -57.798 22.8 -60.192Q22.8 -62.814 23.94 -64.524Q25.080000000000002 -66.23400000000001 26.847 -67.374Q28.614 -68.514 30.78 -68.97Q32.946 -69.426 35.112 -69.426Q38.418 -69.426 41.211 -68.856Q44.004000000000005 -68.286 46.17 -66.918Q48.336 -65.55 49.647 -63.156Q50.958 -60.762 51.186 -57.114000000000004H68.514Q68.514 -64.182 65.835 -69.141Q63.156 -74.10000000000001 58.596000000000004 -77.292Q54.036 -80.48400000000001 48.165000000000006 -81.909Q42.294000000000004 -83.334 35.910000000000004 -83.334Q30.438000000000002 -83.334 24.966 -81.852Q19.494 -80.37 15.161999999999999 -77.292Q10.83 -74.214 8.151 -69.59700000000001Q5.472 -64.98 5.472 -58.71Q5.472 -53.124 7.5809999999999995 -49.191Q9.69 -45.258 13.11 -42.636Q16.53 -40.014 20.862000000000002 -38.361000000000004Q25.194000000000003 -36.708 29.754 -35.568Q34.2 -34.314 38.532000000000004 -33.288Q42.864000000000004 -32.262 46.284000000000006 -30.894Q49.704 -29.526 51.813 -27.474Q53.922000000000004 -25.422 53.922000000000004 -22.116Q53.922000000000004 -19.038 52.32600000000001 -17.043Q50.730000000000004 -15.048 48.336 -13.908000000000001Q45.942 -12.768 43.206 -12.369Q40.47 -11.97 38.076 -11.97Q34.542 -11.97 31.236 -12.825Q27.93 -13.68 25.479 -15.447000000000001Q23.028000000000002 -17.214000000000002 21.546 -20.064Q20.064 -22.914 20.064 -27.018Z" transform="translate(176 304)" />
  </g>
  <path fill="#FFFFFF" d="M13.44 -35.504V0.0H18.76V-35.504H32.088V-39.984H0.112V-35.504ZM39.512 -39.984V0.0H44.832V-18.312H65.888V0.0H71.208V-39.984H65.888V-22.792H44.832V-39.984ZM82.94399999999999 -39.984V0.0H110.72V-4.48H88.264V-18.312H109.03999999999999V-22.792H88.264V-35.504H110.55199999999999V-39.984Z" transform="translate(340 142)" />
  <path fill="#FFFFFF" d="M57.318000000000005 0.0H50.758L49.2 -6.888Q45.1 -2.214 41.0 -0.4099999999999999Q36.9 1.3940000000000001 31.57 1.3940000000000001Q25.01 1.3940000000000001 19.803 -1.025Q14.596 -3.444 10.988 -7.6259999999999994Q7.38 -11.808 5.453 -17.384Q3.5260000000000002 -22.96 3.5260000000000002 -29.274Q3.5260000000000002 -35.506 5.453 -41.082Q7.38 -46.658 10.988 -50.84Q14.596 -55.022000000000006 19.803 -57.482Q25.01 -59.942 31.57 -59.942Q36.326 -59.942 40.631 -58.67100000000001Q44.936 -57.400000000000006 48.298 -54.899Q51.660000000000004 -52.398 53.874 -48.626000000000005Q56.088 -44.854 56.662 -39.934000000000005H46.658Q46.248000000000005 -42.804 44.895 -44.977000000000004Q43.542 -47.15 41.492000000000004 -48.626000000000005Q39.442 -50.102000000000004 36.900000000000006 -50.84Q34.358000000000004 -51.578 31.57 -51.578Q26.896 -51.578 23.493000000000002 -49.69200000000001Q20.09 -47.806000000000004 17.958 -44.649Q15.826 -41.492000000000004 14.801 -37.474000000000004Q13.776 -33.456 13.776 -29.274Q13.776 -25.092000000000002 14.801 -21.074Q15.826 -17.056 17.958 -13.899000000000001Q20.09 -10.742 23.493000000000002 -8.856000000000002Q26.896 -6.970000000000001 31.57 -6.970000000000001Q35.506 -6.888 38.540000000000006 -7.995Q41.574000000000005 -9.102 43.665000000000006 -11.193000000000001Q45.756 -13.284 46.822 -16.318Q47.888000000000005 -19.352 47.97 -23.042H32.39V-30.832H57.318000000000005ZM95.398 -51.578Q90.724 -51.578 87.321 -49.69200000000001Q83.918 -47.806000000000004 81.786 -44.649Q79.654 -41.492000000000004 78.62899999999999 -37.474000000000004Q77.604 -33.456 77.604 -29.274Q77.604 -25.092000000000002 78.62899999999999 -21.074Q79.654 -17.056 81.786 -13.899000000000001Q83.918 -10.742 87.321 -8.856000000000002Q90.724 -6.970000000000001 95.398 -6.970000000000001Q100.072 -6.970000000000001 103.475 -8.856000000000002Q106.878 -10.742 109.00999999999999 -13.899000000000001Q111.142 -17.056 112.167 -21.074Q113.19200000000001 -25.092000000000002 113.19200000000001 -29.274Q113.19200000000001 -33.456 112.167 -37.474000000000004Q111.142 -41.492000000000004 109.00999999999999 -44.649Q106.878 -47.806000000000004 103.475 -49.69200000000001Q100.072 -51.578 95.398 -51.578ZM95.398 -59.942Q101.958 -59.942 107.16499999999999 -57.482Q112.372 -55.022000000000006 115.97999999999999 -50.84Q119.588 -46.658 121.515 -41.082Q123.44200000000001 -35.506 123.44200000000001 -29.274Q123.44200000000001 -22.96 121.515 -17.384Q119.588 -11.808 115.97999999999999 -7.6259999999999994Q112.372 -3.444 107.16499999999999 -1.025Q101.958 1.3940000000000001 95.398 1.3940000000000001Q88.838 1.3940000000000001 83.631 -1.025Q78.424 -3.444 74.816 -7.6259999999999994Q71.208 -11.808 69.281 -17.384Q67.354 -22.96 67.354 -29.274Q67.354 -35.506 69.281 -41.082Q71.208 -46.658 74.816 -50.84Q78.424 -55.022000000000006 83.631 -57.482Q88.838 -59.942 95.398 -59.942ZM134.79 -58.548H145.04V-8.856H174.80599999999998V0.0H134.79ZM183.858 -58.548H224.284V-49.692H194.108V-34.358000000000004H220.594V-25.994H194.108V0.0H183.858ZM266.004 -19.516000000000002Q266.004 -16.154 267.15200000000004 -13.776Q268.3 -11.398 270.35 -9.881Q272.4 -8.364 275.065 -7.667000000000001Q277.73 -6.970000000000001 280.846 -6.970000000000001Q284.208 -6.970000000000001 286.586 -7.7490000000000006Q288.964 -8.528 290.44 -9.758000000000001Q291.916 -10.988000000000001 292.572 -12.587Q293.228 -14.186 293.228 -15.826Q293.228 -19.188000000000002 291.711 -20.787Q290.194 -22.386 288.39 -23.042Q285.274 -24.19 281.13300000000004 -25.215000000000003Q276.992 -26.240000000000002 270.924 -27.880000000000003Q267.152 -28.864 264.65099999999995 -30.463Q262.15 -32.062000000000005 260.674 -34.03Q259.198 -35.998000000000005 258.58299999999997 -38.212Q257.968 -40.426 257.968 -42.722Q257.968 -47.15 259.813 -50.388999999999996Q261.658 -53.628 264.692 -55.760000000000005Q267.726 -57.892 271.58000000000004 -58.917Q275.434 -59.942 279.37 -59.942Q283.962 -59.942 288.02099999999996 -58.753Q292.08 -57.564 295.155 -55.186Q298.23 -52.808 300.034 -49.323Q301.838 -45.838 301.838 -41.246H291.588Q291.178 -46.904 287.73400000000004 -49.241Q284.29 -51.578 278.96 -51.578Q277.156 -51.578 275.27 -51.209Q273.384 -50.84 271.826 -49.979Q270.26800000000003 -49.118 269.24300000000005 -47.642Q268.218 -46.166000000000004 268.218 -43.952000000000005Q268.218 -40.836 270.145 -39.073Q272.072 -37.31 275.188 -36.408Q275.516 -36.326 277.771 -35.711Q280.026 -35.096000000000004 282.81399999999996 -34.358000000000004Q285.602 -33.620000000000005 288.267 -32.923Q290.932 -32.226 292.08 -31.898Q294.95 -30.996000000000002 297.082 -29.438000000000002Q299.214 -27.880000000000003 300.649 -25.871000000000002Q302.084 -23.862000000000002 302.781 -21.566000000000003Q303.478 -19.27 303.478 -16.974Q303.478 -12.054 301.469 -8.569Q299.46 -5.0840000000000005 296.17999999999995 -2.87Q292.9 -0.656 288.71799999999996 0.36900000000000005Q284.536 1.3940000000000001 280.19 1.3940000000000001Q275.188 1.3940000000000001 270.76 0.16400000000000003Q266.332 -1.066 263.052 -3.608Q259.772 -6.15 257.804 -10.127Q255.836 -14.104000000000001 255.754 -19.516000000000002ZM339.34400000000005 -51.578Q334.67 -51.578 331.26700000000005 -49.69200000000001Q327.86400000000003 -47.806000000000004 325.732 -44.649Q323.6 -41.492000000000004 322.57500000000005 -37.474000000000004Q321.55 -33.456 321.55 -29.274Q321.55 -25.092000000000002 322.57500000000005 -21.074Q323.6 -17.056 325.732 -13.899000000000001Q327.86400000000003 -10.742 331.26700000000005 -8.856000000000002Q334.67 -6.970000000000001 339.34400000000005 -6.970000000000001Q344.01800000000003 -6.970000000000001 347.42100000000005 -8.856000000000002Q350.824 -10.742 352.956 -13.899000000000001Q355.088 -17.056 356.11300000000006 -21.074Q357.13800000000003 -25.092000000000002 357.13800000000003 -29.274Q357.13800000000003 -33.456 356.11300000000006 -37.474000000000004Q355.088 -41.492000000000004 352.956 -44.649Q350.824 -47.806000000000004 347.42100000000005 -49.69200000000001Q344.01800000000003 -51.578 339.34400000000005 -51.578ZM339.34400000000005 -59.942Q345.904 -59.942 351.111 -57.482Q356.31800000000004 -55.022000000000006 359.92600000000004 -50.84Q363.53400000000005 -46.658 365.461 -41.082Q367.38800000000003 -35.506 367.38800000000003 -29.274Q367.38800000000003 -22.96 365.461 -17.384Q363.53400000000005 -11.808 359.92600000000004 -7.6259999999999994Q356.31800000000004 -3.444 351.111 -1.025Q345.904 1.3940000000000001 339.34400000000005 1.3940000000000001Q332.78400000000005 1.3940000000000001 327.577 -1.025Q322.37 -3.444 318.76200000000006 -7.6259999999999994Q315.15400000000005 -11.808 313.22700000000003 -17.384Q311.3 -22.96 311.3 -29.274Q311.3 -35.506 313.22700000000003 -41.082Q315.15400000000005 -46.658 318.76200000000006 -50.84Q322.37 -55.022000000000006 327.577 -57.482Q332.78400000000005 -59.942 339.34400000000005 -59.942ZM418.26 -39.934000000000005Q417.60400000000004 -42.476 416.456 -44.608000000000004Q415.308 -46.74 413.504 -48.298Q411.70000000000005 -49.856 409.28100000000006 -50.717Q406.862 -51.578 403.66400000000004 -51.578Q398.99 -51.578 395.587 -49.69200000000001Q392.184 -47.806000000000004 390.052 -44.649Q387.92 -41.492000000000004 386.895 -37.474000000000004Q385.87 -33.456 385.87 -29.274Q385.87 -25.092000000000002 386.895 -21.074Q387.92 -17.056 390.052 -13.899000000000001Q392.184 -10.742 395.587 -8.856000000000002Q398.99 -6.970000000000001 403.66400000000004 -6.970000000000001Q407.108 -6.970000000000001 409.73199999999997 -8.159Q412.356 -9.348 414.242 -11.439Q416.12800000000004 -13.530000000000001 417.194 -16.318Q418.26 -19.106 418.588 -22.304000000000002H428.59200000000004Q428.264 -17.056 426.337 -12.71Q424.41 -8.364 421.13 -5.207000000000001Q417.85 -2.0500000000000003 413.422 -0.32800000000000007Q408.994 1.3940000000000001 403.66400000000004 1.3940000000000001Q397.10400000000004 1.3940000000000001 391.89700000000005 -1.025Q386.69 -3.444 383.082 -7.6259999999999994Q379.47400000000005 -11.808 377.547 -17.384Q375.62 -22.96 375.62 -29.274Q375.62 -35.506 377.547 -41.082Q379.47400000000005 -46.658 383.082 -50.84Q386.69 -55.022000000000006 391.89700000000005 -57.482Q397.10400000000004 -59.942 403.66400000000004 -59.942Q408.584 -59.942 412.93 -58.589Q417.276 -57.236000000000004 420.597 -54.653000000000006Q423.918 -52.07 425.968 -48.38Q428.01800000000003 -44.690000000000005 428.51 -39.934000000000005ZM439.94000000000005 -58.548H450.19000000000005V0.0H439.94000000000005ZM464.73600000000005 -58.548H506.884V-49.692H474.986V-34.358000000000004H504.50600000000003V-25.994H474.986V-8.856H507.458V0.0H464.73600000000005ZM512.8199999999999 -58.548H560.216V-49.692H541.602V0.0H531.352V-49.692H512.8199999999999ZM584.274 -22.96 562.298 -58.548H574.188L589.6859999999999 -32.308L604.938 -58.548H616.418L594.524 -22.96V0.0H584.274Z" transform="translate(340 226)" />
  <path fill="#FFFFFF" d="M6.072 -62.831999999999994V0.0H19.887999999999998V-27.104H45.32V0.0H59.135999999999996V-62.831999999999994H45.32V-38.72H19.887999999999998V-62.831999999999994ZM129.608 -23.759999999999998V-62.831999999999994H115.792V-23.759999999999998Q115.792 -16.72 112.976 -13.419999999999998Q110.16 -10.12 102.768 -10.12Q98.544 -10.12 96.036 -11.308Q93.52799999999999 -12.495999999999999 92.11999999999999 -14.387999999999998Q90.71199999999999 -16.279999999999998 90.27199999999999 -18.744Q89.832 -21.208 89.832 -23.759999999999998V-62.831999999999994H76.01599999999999V-23.759999999999998Q76.01599999999999 -10.911999999999999 83.012 -4.752Q90.008 1.408 102.768 1.408Q115.352 1.408 122.48 -4.796Q129.608 -11.0 129.608 -23.759999999999998ZM160.304 -37.4V-52.096H173.24Q175.088 -52.096 176.80399999999997 -51.788Q178.51999999999998 -51.48 179.83999999999997 -50.687999999999995Q181.16 -49.895999999999994 181.952 -48.488Q182.744 -47.08 182.744 -44.879999999999995Q182.744 -40.919999999999995 180.368 -39.16Q177.992 -37.4 174.296 -37.4ZM146.488 -62.831999999999994V0.0H176.93599999999998Q181.16 0.0 185.164 -1.056Q189.168 -2.112 192.292 -4.311999999999999Q195.416 -6.512 197.264 -9.988Q199.112 -13.463999999999999 199.112 -18.215999999999998Q199.112 -24.112 196.252 -28.292Q193.392 -32.472 187.584 -34.144Q191.808 -36.168 193.964 -39.336Q196.12 -42.504 196.12 -47.256Q196.12 -51.656 194.668 -54.647999999999996Q193.216 -57.63999999999999 190.576 -59.443999999999996Q187.93599999999998 -61.248 184.23999999999998 -62.03999999999999Q180.54399999999998 -62.831999999999994 176.05599999999998 -62.831999999999994ZM160.304 -10.735999999999999V-27.983999999999998H175.352Q179.84 -27.983999999999998 182.56799999999998 -25.915999999999997Q185.296 -23.848 185.296 -19.008Q185.296 -16.544 184.45999999999998 -14.96Q183.624 -13.376 182.216 -12.451999999999998Q180.808 -11.527999999999999 178.95999999999998 -11.131999999999998Q177.112 -10.735999999999999 175.088 -10.735999999999999Z" transform="translate(340 310)" />
  <rect x="340" y="334" width="133.563" height="6" fill="#1DB954" />
</svg>
