<svg xmlns="http://www.w3.org/2000/svg" viewBox="0 0 1000 980" role="img" aria-label="The Golf Society Hub master logo">
  <title>The Golf Society Hub Master Logo</title>
  <defs>
    <style>
      .wordmark { fill: #0E1A2B; font-family: "Montserrat", "Avenir Next", "Segoe UI", Arial, sans-serif; text-anchor: middle; }
    </style>
  </defs>

  <g transform="translate(320 48)">
    <path fill="#FFFFFF" d="M180 24C131 24 87 36 48 52V222C48 323 109 397 180 434C251 397 312 323 312 222V52C273 36 229 24 180 24Z" />
    <path fill="#0E1A2B" fill-opacity="0.35" d="M180 24C131 24 87 36 48 52V222C48 323 109 397 180 434C251 397 312 323 312 222V52C273 36 229 24 180 24Z" />
    <path fill="#0E1A2B" d="M180 42C141 42 104 53 66 68V218C66 307 117 370 180 403C243 370 294 307 294 218V68C256 53 219 42 180 42Z" />
    <path fill="none" stroke="#1DB954" stroke-width="7" stroke-linejoin="round" d="M180 58C147 58 114 67 82 79V212C82 287 126 343 180 373C234 343 278 287 278 212V79C246 67 213 58 180 58Z" />

    <rect x="176" y="-4" width="8" height="52" fill="#FFFFFF" />
    <path fill="#1DB954" d="M184 2L236 15L184 28Z" />
    <path fill="#1DB954" d="M106 292C95 299 92 312 96 327V339C114 342 130 334 130 316V303C130 289 117 285 106 292Z" />

    <circle cx="157" cy="203" r="56" fill="none" stroke="#FFFFFF" stroke-width="16" />
    <rect x="191" y="133" width="62" height="140" fill="#0E1A2B" />
    <path d="M157 203H230" fill="none" stroke="#FFFFFF" stroke-width="16" stroke-linecap="round" />
    <path d="M280 151C241 151 222 168 222 190C222 211 241 224 273 230C307 237 323 250 323 273C323 305 295 324 255 324C215 324 190 303 187 270" fill="none" stroke="#FFFFFF" stroke-width="16" stroke-linecap="round" stroke-linejoin="round" />
    <rect x="262" y="214" width="16" height="10" rx="2" fill="#1DB954" />
  </g>

  <text class="wordmark" x="500" y="594" font-size="46" font-weight="600" letter-spacing="5" fill-opacity="0.45">THE</text>
  <text class="wordmark" x="500" y="670" font-size="70" font-weight="600" letter-spacing="2">THE GOLF SOCIETY</text>
  <text class="wordmark" x="500" y="756" font-size="82" font-weight="800" letter-spacing="8">HUB</text>

  <rect x="318" y="782" width="180" height="6" fill="#1DB954" />
  <rect x="502" y="782" width="180" height="6" fill="#1DB954" />
</svg>
