<svg xmlns="http://www.w3.org/2000/svg" viewBox="0 0 900 980" role="img" aria-label="The Golf Society Hub master logo">
  <title>The Golf Society Hub Master Logo</title>
  <g transform="translate(270 40)">
    <path fill="#FFFFFF" d="M180 28C128 28 86 43 52 56V236C52 336 113 406 180 440C247 406 308 336 308 236V56C274 43 232 28 180 28Z" />
    <path fill="#0E1A2B" d="M180 46C136 46 101 58 71 69V231C71 320 125 382 180 412C235 382 289 320 289 231V69C259 58 224 46 180 46Z" />
    <path fill="none" stroke="#FFFFFF" stroke-width="6" d="M180 46C136 46 101 58 71 69V231C71 320 125 382 180 412C235 382 289 320 289 231V69C259 58 224 46 180 46Z" />
    <rect x="177" y="2" width="6" height="44" fill="#FFFFFF" />
    <path fill="#1DB954" d="M183 7L228 19L183 31Z" />
    <path fill="#1DB954" d="M104 274C98 307 109 337 132 360V329C119 314 111 294 112 274Z" />
    <path fill="#1DB954" d="M180 392C146 373 119 345 108 313V342C122 369 148 392 180 409C212 392 238 369 252 342V313C241 345 214 373 180 392Z" />
    <path fill="#FFFFFF" d="M66.69 -9.234 68.514 0.0H79.914V-44.004000000000005H45.714V-30.666H63.726Q62.928000000000004 -22.116 58.083 -17.613Q53.238 -13.110000000000001 44.346000000000004 -13.110000000000001Q38.304 -13.110000000000001 34.086 -15.447Q29.868000000000002 -17.784 27.246000000000002 -21.66Q24.624000000000002 -25.536 23.427 -30.381Q22.23 -35.226 22.23 -40.356Q22.23 -45.714 23.427 -50.730000000000004Q24.624000000000002 -55.746 27.246000000000002 -59.679Q29.868000000000002 -63.612 34.086 -65.949Q38.304 -68.286 44.346000000000004 -68.286Q50.844 -68.286 55.403999999999996 -64.866Q59.964 -61.446000000000005 61.56 -54.606H78.66Q77.976 -61.56 74.898 -66.918Q71.82000000000001 -72.276 67.089 -75.924Q62.358000000000004 -79.572 56.487 -81.453Q50.616 -83.334 44.346000000000004 -83.334Q34.998000000000005 -83.334 27.531000000000002 -80.028Q20.064 -76.72200000000001 14.934000000000001 -70.90800000000002Q9.804 -65.09400000000001 7.068 -57.285000000000004Q4.332 -49.476 4.332 -40.356Q4.332 -31.464000000000002 7.068 -23.769000000000002Q9.804 -16.074 14.934000000000001 -10.374Q20.064 -4.674 27.531000000000002 -1.4250000000000003Q34.998000000000005 1.824 44.346000000000004 1.824Q50.274 1.824 56.088 -0.6270000000000001Q61.902 -3.0780000000000003 66.69 -9.234Z" transform="translate(110 266)" />
    <path fill="#FFFFFF" d="M20.064 -27.018H2.736Q2.622 -19.494 5.472 -14.022Q8.322000000000001 -8.55 13.167000000000002 -5.016Q18.012 -1.482 24.339 0.17100000000000004Q30.666 1.824 37.392 1.824Q45.714 1.824 52.041 -0.11399999999999999Q58.368 -2.052 62.643 -5.529Q66.918 -9.006 69.084 -13.794Q71.25 -18.582 71.25 -24.168Q71.25 -31.008000000000003 68.343 -35.397000000000006Q65.436 -39.786 61.446000000000005 -42.408Q57.456 -45.03 53.409000000000006 -46.227000000000004Q49.362 -47.424 47.082 -47.88Q39.444 -49.818000000000005 34.713 -51.072Q29.982 -52.326 27.303 -53.58Q24.624000000000002 -54.834 23.712000000000003 -56.316Q22.8 -57.798 22.8 -60.192Q22.8 -62.814 23.94 -64.524Q25.080000000000002 -66.23400000000001 26.847 -67.374Q28.614 -68.514 30.78 -68.97Q32.946 -69.426 35.112 -69.426Q38.418 -69.426 41.211 -68.856Q44.004000000000005 -68.286 46.17 -66.918Q48.336 -65.55 49.647 -63.156Q50.958 -60.762 51.186 -57.114000000000004H68.514Q68.514 -64.182 65.835 -69.141Q63.156 -74.10000000000001 58.596000000000004 -77.292Q54.036 -80.48400000000001 48.165000000000006 -81.909Q42.294000000000004 -83.334 35.910000000000004 -83.334Q30.438000000000002 -83.334 24.966 -81.852Q19.494 -80.37 15.161999999999999 -77.292Q10.83 -74.214 8.151 -69.59700000000001Q5.472 -64.98 5.472 -58.71Q5.472 -53.124 7.5809999999999995 -49.191Q9.69 -45.258 13.11 -42.636Q16.53 -40.014 20.862000000000002 -38.361000000000004Q25.194000000000003 -36.708 29.754 -35.568Q34.2 -34.314 38.532000000000004 -33.288Q42.864000000000004 -32.262 46.284000000000006 -30.894Q49.704 -29.526 51.813 -27.474Q53.922000000000004 -25.422 53.922000000000004 -22.116Q53.922000000000004 -19.038 52.32600000000001 -17.043Q50.730000000000004 -15.048 48.336 -13.908000000000001Q45.942 -12.768 43.206 -12.369Q40.47 -11.97 38.076 -11.97Q34.542 -11.97 31.236 -12.825Q27.93 -13.68 25.479 -15.447000000000001Q23.028000000000002 -17.214000000000002 21.546 -20.064Q20.064 -22.914 20.064 -27.018Z" transform="translate(176 304)" />
  </g>
  <path fill="#FFFFFF" d="M10.559999999999999 -27.895999999999997V0.0H14.739999999999998V-27.895999999999997H25.212V-31.415999999999997H0.088V-27.895999999999997ZM31.688 -31.415999999999997V0.0H35.868V-14.388H52.412V0.0H56.592V-31.415999999999997H52.412V-17.907999999999998H35.868V-31.415999999999997ZM66.456 -31.415999999999997V0.0H88.28V-3.5199999999999996H70.636V-14.388H86.96000000000001V-17.907999999999998H70.636V-27.895999999999997H88.148V-31.415999999999997Z" transform="translate(405.046 574)" />
  <path fill="#FFFFFF" d="M46.134 0.0H40.854L39.6 -5.5440000000000005Q36.300000000000004 -1.782 33.0 -0.32999999999999996Q29.700000000000003 1.122 25.41 1.122Q20.130000000000003 1.122 15.939000000000002 -0.8250000000000001Q11.748000000000001 -2.7720000000000002 8.844000000000001 -6.138000000000001Q5.94 -9.504000000000001 4.389 -13.992Q2.838 -18.48 2.838 -23.562Q2.838 -28.578000000000003 4.389 -33.066Q5.94 -37.554 8.844000000000001 -40.92Q11.748000000000001 -44.286 15.939000000000002 -46.266000000000005Q20.130000000000003 -48.246 25.41 -48.246Q29.238000000000003 -48.246 32.703 -47.223Q36.168 -46.2 38.874 -44.187Q41.580000000000005 -42.174 43.36200000000001 -39.138000000000005Q45.144000000000005 -36.102000000000004 45.606 -32.142H37.554Q37.224000000000004 -34.452 36.135000000000005 -36.201Q35.046 -37.95 33.396 -39.138000000000005Q31.746000000000002 -40.326 29.700000000000003 -40.92Q27.654 -41.514 25.41 -41.514Q21.648 -41.514 18.909 -39.996Q16.17 -38.478 14.454 -35.937Q12.738000000000001 -33.396 11.913 -30.162Q11.088000000000001 -26.928 11.088000000000001 -23.562Q11.088000000000001 -20.196 11.913 -16.962000000000003Q12.738000000000001 -13.728000000000002 14.454 -11.187000000000001Q16.17 -8.646 18.909 -7.128Q21.648 -5.61 25.41 -5.61Q28.578000000000003 -5.5440000000000005 31.020000000000003 -6.4350000000000005Q33.462 -7.3260000000000005 35.145 -9.009Q36.828 -10.692 37.68600000000001 -13.134Q38.544000000000004 -15.576 38.61 -18.546H26.07V-24.816000000000003H46.134ZM77.174 -41.514Q73.412 -41.514 70.673 -39.996Q67.934 -38.478 66.218 -35.937Q64.50200000000001 -33.396 63.67700000000001 -30.162Q62.852000000000004 -26.928 62.852000000000004 -23.562Q62.852000000000004 -20.196 63.67700000000001 -16.962000000000003Q64.50200000000001 -13.728000000000002 66.218 -11.187000000000001Q67.934 -8.646 70.673 -7.128Q73.412 -5.61 77.174 -5.61Q80.936 -5.61 83.67500000000001 -7.128Q86.414 -8.646 88.13 -11.187000000000001Q89.846 -13.728000000000002 90.671 -16.962000000000003Q91.49600000000001 -20.196 91.49600000000001 -23.562Q91.49600000000001 -26.928 90.671 -30.162Q89.846 -33.396 88.13 -35.937Q86.414 -38.478 83.67500000000001 -39.996Q80.936 -41.514 77.174 -41.514ZM77.174 -48.246Q82.45400000000001 -48.246 86.64500000000001 -46.266000000000005Q90.83600000000001 -44.286 93.74000000000001 -40.92Q96.644 -37.554 98.19500000000001 -33.066Q99.74600000000001 -28.578000000000003 99.74600000000001 -23.562Q99.74600000000001 -18.48 98.19500000000001 -13.992Q96.644 -9.504000000000001 93.74000000000001 -6.138000000000001Q90.83600000000001 -2.7720000000000002 86.64500000000001 -0.8250000000000001Q82.45400000000001 1.122 77.174 1.122Q71.894 1.122 67.703 -0.8250000000000001Q63.512 -2.7720000000000002 60.608000000000004 -6.138000000000001Q57.704 -9.504000000000001 56.153000000000006 -13.992Q54.602000000000004 -18.48 54.602000000000004 -23.562Q54.602000000000004 -28.578000000000003 56.153000000000006 -33.066Q57.704 -37.554 60.608000000000004 -40.92Q63.512 -44.286 67.703 -46.266000000000005Q71.894 -48.246 77.174 -48.246ZM109.27000000000001 -47.124H117.52000000000001V-7.128H141.478V0.0H109.27000000000001ZM149.154 -47.124H181.692V-39.996H157.404V-27.654H178.722V-20.922H157.404V0.0H149.154ZM216.05200000000002 -15.708Q216.05200000000002 -13.002 216.97600000000003 -11.088000000000001Q217.90000000000003 -9.174000000000001 219.55 -7.953000000000001Q221.20000000000002 -6.732 223.34500000000003 -6.171Q225.49 -5.61 227.99800000000002 -5.61Q230.70400000000004 -5.61 232.61800000000005 -6.237Q234.53200000000004 -6.864000000000001 235.72000000000003 -7.854000000000001Q236.90800000000002 -8.844000000000001 237.43600000000004 -10.131Q237.96400000000003 -11.418000000000001 237.96400000000003 -12.738000000000001Q237.96400000000003 -15.444 236.74300000000002 -16.731Q235.52200000000002 -18.018 234.07000000000002 -18.546Q231.562 -19.470000000000002 228.229 -20.295Q224.89600000000002 -21.12 220.01200000000003 -22.44Q216.97600000000003 -23.232 214.96300000000002 -24.519Q212.95000000000002 -25.806 211.762 -27.39Q210.574 -28.974 210.079 -30.756Q209.58400000000003 -32.538000000000004 209.58400000000003 -34.386Q209.58400000000003 -37.95 211.06900000000002 -40.557Q212.55400000000003 -43.164 214.99600000000004 -44.88Q217.43800000000002 -46.596000000000004 220.54000000000002 -47.42100000000001Q223.64200000000002 -48.246 226.81000000000003 -48.246Q230.50600000000003 -48.246 233.77300000000002 -47.289Q237.04000000000002 -46.332 239.51500000000001 -44.418000000000006Q241.99 -42.504000000000005 243.442 -39.699Q244.89400000000003 -36.894 244.89400000000003 -33.198H236.64400000000003Q236.31400000000002 -37.752 233.54200000000003 -39.633Q230.77000000000004 -41.514 226.48000000000002 -41.514Q225.02800000000002 -41.514 223.51000000000002 -41.217Q221.99200000000002 -40.92 220.73800000000003 -40.227000000000004Q219.48400000000004 -39.534 218.65900000000005 -38.346000000000004Q217.83400000000003 -37.158 217.83400000000003 -35.376000000000005Q217.83400000000003 -32.868 219.38500000000005 -31.449Q220.93600000000004 -30.03 223.44400000000002 -29.304000000000002Q223.70800000000003 -29.238000000000003 225.52300000000002 -28.743000000000002Q227.33800000000002 -28.248 229.58200000000002 -27.654000000000003Q231.82600000000002 -27.060000000000002 233.971 -26.499000000000002Q236.116 -25.938000000000002 237.04000000000002 -25.674Q239.35000000000002 -24.948 241.06600000000003 -23.694000000000003Q242.78200000000004 -22.44 243.93700000000004 -20.823Q245.09200000000004 -19.206 245.65300000000002 -17.358Q246.21400000000003 -15.510000000000002 246.21400000000003 -13.662Q246.21400000000003 -9.702 244.59700000000004 -6.897Q242.98000000000002 -4.0920000000000005 240.34000000000003 -2.3100000000000005Q237.70000000000002 -0.528 234.334 0.29700000000000004Q230.96800000000002 1.122 227.47000000000003 1.122Q223.44400000000002 1.122 219.88000000000002 0.132Q216.31600000000003 -0.8580000000000001 213.67600000000004 -2.904Q211.03600000000003 -4.95 209.45200000000003 -8.151Q207.86800000000002 -11.352 207.80200000000002 -15.708ZM275.47200000000004 -41.514Q271.71000000000004 -41.514 268.971 -39.996Q266.232 -38.478 264.516 -35.937Q262.8 -33.396 261.975 -30.162Q261.15000000000003 -26.928 261.15000000000003 -23.562Q261.15000000000003 -20.196 261.975 -16.962000000000003Q262.8 -13.728000000000002 264.516 -11.187000000000001Q266.232 -8.646 268.971 -7.128Q271.71000000000004 -5.61 275.47200000000004 -5.61Q279.23400000000004 -5.61 281.97300000000007 -7.128Q284.71200000000005 -8.646 286.428 -11.187000000000001Q288.144 -13.728000000000002 288.96900000000005 -16.962000000000003Q289.79400000000004 -20.196 289.79400000000004 -23.562Q289.79400000000004 -26.928 288.96900000000005 -30.162Q288.144 -33.396 286.428 -35.937Q284.71200000000005 -38.478 281.97300000000007 -39.996Q279.23400000000004 -41.514 275.47200000000004 -41.514ZM275.47200000000004 -48.246Q280.752 -48.246 284.943 -46.266000000000005Q289.134 -44.286 292.038 -40.92Q294.942 -37.554 296.49300000000005 -33.066Q298.04400000000004 -28.578000000000003 298.04400000000004 -23.562Q298.04400000000004 -18.48 296.49300000000005 -13.992Q294.942 -9.504000000000001 292.038 -6.138000000000001Q289.134 -2.7720000000000002 284.943 -0.8250000000000001Q280.752 1.122 275.47200000000004 1.122Q270.192 1.122 266.001 -0.8250000000000001Q261.81 -2.7720000000000002 258.906 -6.138000000000001Q256.002 -9.504000000000001 254.45100000000002 -13.992Q252.90000000000003 -18.48 252.90000000000003 -23.562Q252.90000000000003 -28.578000000000003 254.45100000000002 -33.066Q256.002 -37.554 258.906 -40.92Q261.81 -44.286 266.001 -46.266000000000005Q270.192 -48.246 275.47200000000004 -48.246ZM339.38 -32.142Q338.85200000000003 -34.188 337.928 -35.904Q337.004 -37.620000000000005 335.552 -38.874Q334.1 -40.128 332.153 -40.821Q330.206 -41.514 327.632 -41.514Q323.87 -41.514 321.131 -39.996Q318.392 -38.478 316.67600000000004 -35.937Q314.96000000000004 -33.396 314.135 -30.162Q313.31 -26.928 313.31 -23.562Q313.31 -20.196 314.135 -16.962000000000003Q314.96000000000004 -13.728000000000002 316.67600000000004 -11.187000000000001Q318.392 -8.646 321.131 -7.128Q323.87 -5.61 327.632 -5.61Q330.404 -5.61 332.516 -6.567Q334.62800000000004 -7.524 336.1460000000001 -9.207Q337.66400000000004 -10.89 338.52200000000005 -13.134Q339.38 -15.378 339.644 -17.952H347.696Q347.432 -13.728000000000002 345.88100000000003 -10.23Q344.33000000000004 -6.732 341.69000000000005 -4.191Q339.05 -1.6500000000000001 335.486 -0.264Q331.922 1.122 327.632 1.122Q322.35200000000003 1.122 318.16100000000006 -0.8250000000000001Q313.97 -2.7720000000000002 311.06600000000003 -6.138000000000001Q308.16200000000003 -9.504000000000001 306.611 -13.992Q305.06 -18.48 305.06 -23.562Q305.06 -28.578000000000003 306.611 -33.066Q308.16200000000003 -37.554 311.06600000000003 -40.92Q313.97 -44.286 318.16100000000006 -46.266000000000005Q322.35200000000003 -48.246 327.632 -48.246Q331.59200000000004 -48.246 335.09000000000003 -47.157000000000004Q338.588 -46.068000000000005 341.261 -43.989000000000004Q343.934 -41.910000000000004 345.58400000000006 -38.94Q347.23400000000004 -35.97 347.63 -32.142ZM357.22 -47.124H365.47V0.0H357.22ZM377.56800000000004 -47.124H411.492V-39.996H385.81800000000004V-27.654H409.57800000000003V-20.922H385.81800000000004V-7.128H411.954V0.0H377.56800000000004ZM416.66 -47.124H454.808V-39.996H439.826V0.0H431.576V-39.996H416.66ZM474.562 -18.48 456.87399999999997 -47.124H466.44399999999996L478.918 -26.004L491.19399999999996 -47.124H500.43399999999997L482.812 -18.48V0.0H474.562Z" transform="translate(199.981 646)" />
  <path fill="#FFFFFF" d="M5.382 -55.692V0.0H17.628V-24.024H40.17V0.0H52.416V-55.692H40.17V-34.32H17.628V-55.692ZM116.44800000000001 -21.06V-55.692H104.202V-21.06Q104.202 -14.82 101.706 -11.895Q99.21000000000001 -8.97 92.658 -8.97Q88.914 -8.97 86.691 -10.023Q84.468 -11.076 83.22 -12.753Q81.97200000000001 -14.43 81.58200000000001 -16.613999999999997Q81.19200000000001 -18.798 81.19200000000001 -21.06V-55.692H68.946V-21.06Q68.946 -9.672 75.14699999999999 -4.212000000000001Q81.348 1.248 92.658 1.248Q103.81200000000001 1.248 110.13000000000001 -4.251Q116.44800000000001 -9.75 116.44800000000001 -21.06ZM145.224 -33.15V-46.176H156.69Q158.328 -46.176 159.849 -45.903000000000006Q161.37 -45.63 162.54000000000002 -44.928Q163.71 -44.226 164.412 -42.977999999999994Q165.114 -41.73 165.114 -39.78Q165.114 -36.27 163.00799999999998 -34.71Q160.902 -33.15 157.626 -33.15ZM132.978 -55.692V0.0H159.966Q163.71 0.0 167.25900000000001 -0.9359999999999999Q170.808 -1.8719999999999999 173.577 -3.822Q176.346 -5.772 177.984 -8.853Q179.622 -11.934 179.622 -16.146Q179.622 -21.372 177.08700000000002 -25.076999999999998Q174.55200000000002 -28.782 169.404 -30.264Q173.148 -32.058 175.059 -34.866Q176.97 -37.674 176.97 -41.886Q176.97 -45.786 175.683 -48.438Q174.39600000000002 -51.09 172.056 -52.689Q169.716 -54.288 166.44 -54.989999999999995Q163.164 -55.692 159.186 -55.692ZM145.224 -9.516V-24.804H158.562Q162.54000000000002 -24.804 164.95800000000003 -22.971Q167.376 -21.138 167.376 -16.848Q167.376 -14.664 166.635 -13.26Q165.894 -11.856 164.64600000000002 -11.036999999999999Q163.398 -10.218 161.76 -9.867Q160.122 -9.516 158.328 -9.516Z" transform="translate(358.746 718)" />
  <rect x="382.472" y="744" width="135.056" height="6" fill="#1DB954" />
</svg>
